# xmcd CD database file
#
# Track frame offsets:
#	150
#	14637
#	40349
#	55860
#	70434
#	84097
#	99373
#	113942
#	128607
#	147517
#	166930
#	180150
#	193153
#	205163
#	219438
#	240021
#
# Disc length: 3432 seconds
#
# Revision: 1
# Processed by: cddbd v1.5.2PL0 Copyright (c) Steve Scherf et al.
# Submitted via: CDex 1.51
#
DISCID=d40d6610
DTITLE=Dieter Koblenz - Pimp My Schlager
DYEAR=2006
DGENRE=Salsa
TTITLE0=Uberall Auf Der Welt
TTITLE1=Schlagermedley
TTITLE2=Ratata (wiesefest Edition)
TTITLE3=Nimm Das Nachste Schiff Nach Rhodos
TTITLE4=Schonn Is Das Auf Der Welt Zu Sein
TTITLE5=Ich Bin Wi Du
TTITLE6=Uber Den Wolken
TTITLE7=Ich Fang An Fur Eucg Den Sonneschein
TTITLE8=Letszte Sirtaki
TTITLE9=Spiel Bouzouki
TTITLE10=Komm Gib mir Dein Hand
TTITLE11=Anita
TTITLE12=Schone Maid
TTITLE13=Rosamunde
TTITLE14=Polonaise Medley
TTITLE15=Ratata (Patschi Party Mix)
EXTD=YEAR: 2006
EXTT0=
EXTT1=
EXTT2=
EXTT3=
EXTT4=
EXTT5=
EXTT6=
EXTT7=
EXTT8=
EXTT9=
EXTT10=
EXTT11=
EXTT12=
EXTT13=
EXTT14=
EXTT15=
PLAYORDER=
